<?xml version="1.0" encoding="UTF-8" standalone="no"?>
<!-- Created with Inkscape (http://www.inkscape.org/) -->

<svg
   width="120mm"
   height="37mm"
   viewBox="0 0 120 37"
   version="1.1"
   id="svg5"
   xmlns="http://www.w3.org/2000/svg"
   xmlns:svg="http://www.w3.org/2000/svg">
  <defs
     id="defs2">
    <radialGradient
       fx="0"
       fy="0"
       cx="0"
       cy="0"
       r="1"
       gradientUnits="userSpaceOnUse"
       gradientTransform="matrix(419.66998,0,0,-419.66998,250,250)"
       spreadMethod="pad"
       id="radialGradient51">
      <stop
         style="stop-opacity:1;stop-color:#ffffff"
         offset="0"
         id="stop45" />
      <stop
         style="stop-opacity:1;stop-color:#ffffff"
         offset="0.75314554"
         id="stop47" />
      <stop
         style="stop-opacity:1;stop-color:#eaeaea"
         offset="1"
         id="stop49" />
    </radialGradient>
    <clipPath
       clipPathUnits="userSpaceOnUse"
       id="clipPath61">
      <path
         d="M 0,500 H 500 V 0 H 0 Z"
         id="path59" />
    </clipPath>
    <linearGradient
       x1="0"
       y1="0"
       x2="1"
       y2="0"
       gradientUnits="userSpaceOnUse"
       gradientTransform="matrix(3.2893798,-39.71249,-39.71249,-3.2893798,248.24072,404.50293)"
       spreadMethod="pad"
       id="linearGradient83">
      <stop
         style="stop-opacity:1;stop-color:#707070"
         offset="0"
         id="stop79" />
      <stop
         style="stop-opacity:1;stop-color:#616161"
         offset="1"
         id="stop81" />
    </linearGradient>
    <clipPath
       clipPathUnits="userSpaceOnUse"
       id="clipPath93">
      <path
         d="M 0,500 H 500 V 0 H 0 Z"
         id="path91" />
    </clipPath>
    <linearGradient
       x1="0"
       y1="0"
       x2="1"
       y2="0"
       gradientUnits="userSpaceOnUse"
       gradientTransform="matrix(-3.289448,-39.713318,39.713318,-3.289448,251.75879,261.84766)"
       spreadMethod="pad"
       id="linearGradient207">
      <stop
         style="stop-opacity:1;stop-color:#707070"
         offset="0"
         id="stop203" />
      <stop
         style="stop-opacity:1;stop-color:#616161"
         offset="1"
         id="stop205" />
    </linearGradient>
    <clipPath
       clipPathUnits="userSpaceOnUse"
       id="clipPath217">
      <path
         d="M 0,500 H 500 V 0 H 0 Z"
         id="path215" />
    </clipPath>
    <linearGradient
       x1="0"
       y1="0"
       x2="1"
       y2="0"
       gradientUnits="userSpaceOnUse"
       gradientTransform="matrix(2.2704065,-27.410486,-27.410486,-2.2704065,145.81201,103.39746)"
       spreadMethod="pad"
       id="linearGradient347">
      <stop
         style="stop-opacity:1;stop-color:#707070"
         offset="0"
         id="stop343" />
      <stop
         style="stop-opacity:1;stop-color:#616161"
         offset="1"
         id="stop345" />
    </linearGradient>
    <clipPath
       clipPathUnits="userSpaceOnUse"
       id="clipPath357">
      <path
         d="M 0,500 H 500 V 0 H 0 Z"
         id="path355" />
    </clipPath>
    <linearGradient
       x1="0"
       y1="0"
       x2="1"
       y2="0"
       gradientUnits="userSpaceOnUse"
       gradientTransform="matrix(-1e-6,-23.047548,-23.047548,1e-6,146.7876,148.08594)"
       spreadMethod="pad"
       id="linearGradient435">
      <stop
         style="stop-opacity:1;stop-color:#575757"
         offset="0"
         id="stop431" />
      <stop
         style="stop-opacity:1;stop-color:#474747"
         offset="1"
         id="stop433" />
    </linearGradient>
    <clipPath
       clipPathUnits="userSpaceOnUse"
       id="clipPath445">
      <path
         d="M 0,500 H 500 V 0 H 0 Z"
         id="path443" />
    </clipPath>
    <linearGradient
       x1="0"
       y1="0"
       x2="1"
       y2="0"
       gradientUnits="userSpaceOnUse"
       gradientTransform="matrix(-7e-7,-17.076897,-17.076897,7e-7,353.21289,127.33398)"
       spreadMethod="pad"
       id="linearGradient495">
      <stop
         style="stop-opacity:1;stop-color:#707070"
         offset="0"
         id="stop491" />
      <stop
         style="stop-opacity:1;stop-color:#616161"
         offset="1"
         id="stop493" />
    </linearGradient>
    <clipPath
       clipPathUnits="userSpaceOnUse"
       id="clipPath505">
      <path
         d="M 0,500 H 500 V 0 H 0 Z"
         id="path503" />
    </clipPath>
    <linearGradient
       x1="0"
       y1="0"
       x2="1"
       y2="0"
       gradientUnits="userSpaceOnUse"
       gradientTransform="matrix(-1.2e-6,-27.158167,-27.158167,1.2e-6,353.21289,106.76953)"
       spreadMethod="pad"
       id="linearGradient541">
      <stop
         style="stop-opacity:1;stop-color:#595959"
         offset="0"
         id="stop537" />
      <stop
         style="stop-opacity:1;stop-color:#5c5c5c"
         offset="1"
         id="stop539" />
    </linearGradient>
    <clipPath
       clipPathUnits="userSpaceOnUse"
       id="clipPath551">
      <path
         d="M 0,500 H 500 V 0 H 0 Z"
         id="path549" />
    </clipPath>
  </defs>
  <g
     id="layer1">
    <g
       id="g31"
       transform="matrix(0.35277777,0,0,-0.35277777,-28.700034,108.00596)">
      <g
         id="g87">
        <g
           id="g89"
           clip-path="url(#clipPath93)">
          <g
             id="g187"
             transform="translate(414.5566,222.8613)">
            <path
               d="M 0,0 C 0,0 -2.798,-4.057 -9.094,-5.176 -15.389,-6.295 -40.57,-6.855 -55.4,-6.855 h -203.926 c -3.918,0 -60.903,8.394 -65.52,9.513 -4.617,1.119 -7.695,4.897 -7.695,8.395 v 16.134 c 0,1.143 0.979,2.472 2.588,3.032 0,0 1.469,6.505 2.589,8.323 1.119,1.819 8.323,16.509 12.591,17.208 4.266,0.7 22.897,2.029 22.897,2.029 0,0 41.409,22.103 55.213,23.876 13.804,1.772 69.903,1.305 87.391,-1.072 17.487,-2.379 44.301,-18.047 66.779,-29.52 0,0 47.518,-7.414 56.472,-8.813 8.954,-1.399 20.146,-7.555 23.083,-12.171 C 0,25.462 1.05,20.775 1.749,20.146 c 0.7,-0.63 1.679,-1.539 1.679,-2.938 V 8.324 C 3.428,6.785 1.726,6.062 1.726,4.896 1.726,3.73 0.959,1.094 0,0"
               style="fill:#616161;fill-opacity:1;fill-rule:nonzero;stroke:none"
               id="path189" />
          </g>
        </g>
      </g>
      <g
         id="g191">
        <g
           id="g193">
          <g
             id="g199">
            <g
               id="g201">
              <path
                 d="m 84.604,253.08 c -1.609,-0.56 -2.589,-1.888 -2.589,-3.032 v 0 -16.133 c 0,-3.499 3.079,-7.276 7.695,-8.396 v 0 c 4.617,-1.118 61.602,-9.513 65.52,-9.513 v 0 h 203.926 c 14.83,0 40.012,0.56 46.307,1.68 v 0 c 6.296,1.118 9.093,5.176 9.093,5.176 v 0 c 0.96,1.093 1.726,3.73 1.726,4.896 v 0 c 0,1.166 1.702,1.889 1.702,3.428 v 0 8.884 c 0,0.54 -0.147,1.004 -0.367,1.411 v 0 l -331.74,16.474 c -0.701,-2.345 -1.273,-4.875 -1.273,-4.875"
                 style="fill:url(#linearGradient207);stroke:none"
                 id="path209" />
            </g>
          </g>
        </g>
      </g>
      <g
         id="g211">
        <g
           id="g213"
           clip-path="url(#clipPath217)">
          <g
             id="g219"
             transform="translate(329.2812,269.356)">
            <path
               d="M 0,0 C -0.463,1.318 1.492,3.247 3.051,4.527 3.222,4.5 3.474,4.461 3.797,4.411 2.03,3.009 0.187,1.154 0.521,0.2 c 0.861,-1.304 23.625,-5.946 35.854,-8.44 5.563,-1.134 9.955,-2.03 11.893,-2.495 3.117,-0.748 8.201,-2.14 13.117,-3.486 6.176,-1.692 12.01,-3.289 13.531,-3.504 2.279,-0.32 5.431,-0.518 8.371,-0.297 0.099,-0.182 0.193,-0.361 0.287,-0.54 -0.947,-0.079 -1.918,-0.118 -2.88,-0.118 -2.137,0 -4.22,0.17 -5.856,0.401 -1.557,0.22 -7.407,1.822 -13.602,3.518 -4.912,1.345 -9.99,2.736 -13.099,3.482 -1.928,0.463 -6.317,1.358 -11.873,2.491 C 12.56,-3.955 0.443,-1.268 0,0"
               style="fill:#525252;fill-opacity:1;fill-rule:nonzero;stroke:none"
               id="path221" />
          </g>
          <g
             id="g223"
             transform="translate(164.5566,273.3652)">
            <path
               d="m 0,0 c 0,6.04 9.396,15.038 20.108,19.256 12.207,4.806 26.673,7.045 45.524,7.045 0.049,0 0.106,-0.002 0.156,-0.002 0.28,-2.15 2.332,-18.087 2.763,-29.201 l 0.04,-0.135 c 0.032,-0.051 3.131,-5.249 3.131,-12.539 V -53.068 H 37.12 c -5.141,0 -8.665,1.984 -10.472,5.9 -0.554,1.201 -1.2,2.863 -1.948,4.785 -2.242,5.768 -5.631,14.485 -11.041,22.212 -2.63,3.757 -5.131,6.637 -7.337,9.177 C 2.652,-6.768 0,-3.714 0,0 m 72.281,-15.576 c 0,7.011 -2.813,12.137 -3.174,12.765 -0.432,11.018 -2.439,26.688 -2.754,29.103 6.56,-0.097 20.379,-1.513 32.147,-5.108 4.596,-1.404 29.828,-12.904 37.048,-17.687 0.878,-0.581 1.763,-1.151 2.641,-1.718 6.55,-4.221 12.737,-8.208 13.463,-15.237 0.512,-4.954 -0.099,-11.416 -0.64,-17.118 -0.343,-3.608 -0.666,-7.016 -0.666,-9.621 V -51.67 c 0,-0.781 0,-1.398 -2.24,-1.398 H 72.281 Z M -0.56,0 c 0,-3.923 2.71,-7.043 6.459,-11.361 2.198,-2.53 4.688,-5.397 7.302,-9.132 5.371,-7.671 8.745,-16.35 10.978,-22.092 0.751,-1.933 1.4,-3.601 1.962,-4.818 1.906,-4.13 5.6,-6.226 10.979,-6.226 h 110.986 c 2.589,0 2.799,0.887 2.799,1.959 v 11.473 c 0,2.579 0.322,5.974 0.663,9.568 0.543,5.729 1.159,12.22 0.641,17.229 -0.754,7.296 -7.051,11.354 -13.717,15.65 -0.877,0.564 -1.759,1.133 -2.635,1.714 -7.742,5.128 -32.854,16.429 -37.193,17.755 -12.262,3.745 -26.768,5.142 -33.032,5.142 -18.923,0 -33.454,-2.251 -45.729,-7.085 C 8.811,15.409 -0.56,6.353 -0.56,0"
               style="fill:#525252;fill-opacity:1;fill-rule:nonzero;stroke:none"
               id="path225" />
          </g>
          <g
             id="g227"
             transform="translate(324.6445,216.0059)">
            <path
               d="m 0,0 c -1.58,3.437 -2.468,7.256 -2.468,11.285 0,14.938 12.11,27.048 27.047,27.048 14.939,0 27.048,-12.11 27.048,-27.048 0,-3.974 -0.865,-7.746 -2.405,-11.144 C 43.926,0.048 38.788,0 34.512,0 Z"
               style="fill:#525252;fill-opacity:1;fill-rule:nonzero;stroke:none"
               id="path229" />
          </g>
          <g
             id="g231"
             transform="translate(129.3608,219.3828)">
            <path
               d="m 0,0 c -0.764,2.502 -1.178,5.156 -1.178,7.908 0,14.938 12.11,27.048 27.048,27.048 14.937,0 27.047,-12.11 27.047,-27.048 0,-4.029 -0.889,-7.848 -2.468,-11.285 H 25.87 C 24.195,-3.377 12.828,-1.843 0,0"
               style="fill:#525252;fill-opacity:1;fill-rule:nonzero;stroke:none"
               id="path233" />
          </g>
          <g
             id="g235"
             transform="translate(326.4668,227.291)">
            <path
               d="m 0,0 c 0,-12.568 10.189,-22.756 22.757,-22.756 12.568,0 22.757,10.188 22.757,22.756 0,12.568 -10.189,22.757 -22.757,22.757 C 10.189,22.757 0,12.568 0,0"
               style="fill:#404040;fill-opacity:1;fill-rule:nonzero;stroke:none"
               id="path237" />
          </g>
          <g
             id="g239"
             transform="translate(337.0898,215.1572)">
            <path
               d="m 0,0 c 6.701,-6.702 17.567,-6.702 24.268,0 6.702,6.701 6.702,17.567 0,24.269 C 17.567,30.97 6.701,30.97 0,24.269 -6.701,17.567 -6.701,6.701 0,0"
               style="fill:#c4c4c4;fill-opacity:1;fill-rule:nonzero;stroke:none"
               id="path241" />
          </g>
          <g
             id="g243"
             transform="translate(337.0898,215.1572)">
            <path
               d="M 0,0 C -6.701,6.701 -6.701,17.567 0,24.269 L 24.268,0 C 17.567,-6.702 6.701,-6.702 0,0"
               style="fill:#ababab;fill-opacity:1;fill-rule:nonzero;stroke:none"
               id="path245" />
          </g>
          <g
             id="g247"
             transform="translate(132.4736,227.291)">
            <path
               d="m 0,0 c 0,-12.568 10.188,-22.756 22.757,-22.756 12.568,0 22.756,10.188 22.756,22.756 0,12.568 -10.188,22.757 -22.756,22.757 C 10.188,22.757 0,12.568 0,0"
               style="fill:#404040;fill-opacity:1;fill-rule:nonzero;stroke:none"
               id="path249" />
          </g>
          <g
             id="g251"
             transform="translate(143.0962,215.1572)">
            <path
               d="m 0,0 c 6.701,-6.702 17.567,-6.702 24.268,0 6.702,6.701 6.702,17.567 0,24.269 C 17.567,30.97 6.701,30.97 0,24.269 -6.702,17.567 -6.702,6.701 0,0"
               style="fill:#c4c4c4;fill-opacity:1;fill-rule:nonzero;stroke:none"
               id="path253" />
          </g>
          <g
             id="g255"
             transform="translate(143.0962,215.1572)">
            <path
               d="M 0,0 C -6.702,6.701 -6.702,17.567 0,24.269 L 24.268,0 C 17.567,-6.702 6.701,-6.702 0,0"
               style="fill:#ababab;fill-opacity:1;fill-rule:nonzero;stroke:none"
               id="path257" />
          </g>
          <g
             id="g259"
             transform="translate(315.0186,275.8135)">
            <path
               d="m 0,0 c -2.309,1.399 -17.907,10.073 -24.902,13.64 -6.995,3.568 -14.55,6.646 -15.809,6.925 -1.259,0.28 -2.518,1.819 -1.399,2.449 0.885,0.497 3.525,0.601 7.184,0.554 C -18.983,17.607 0.242,6.687 17.045,-1.889 H 7.694 C 5.316,-1.889 2.308,-1.399 0,0"
               style="fill:#474747;fill-opacity:1;fill-rule:nonzero;stroke:none"
               id="path261" />
          </g>
          <g
             id="g263"
             transform="translate(235.5322,297.9878)">
            <path
               d="m 0,0 c 3.075,-0.111 17.722,-1.12 27.887,-4.664 10.166,-3.544 32.643,-15.202 36.467,-17.907 3.823,-2.704 3.357,-5.316 0,-5.316 H 4.85 c -2.052,0 -3.428,0.117 -4.057,2.495 -0.63,2.378 -2.938,23.433 -2.938,24.273 0,0.839 0.234,1.188 2.145,1.119"
               style="fill:#474747;fill-opacity:1;fill-rule:nonzero;stroke:none"
               id="path265" />
          </g>
          <g
             id="g267"
             transform="translate(229.3999,296.1689)">
            <path
               d="m 0,0 c 0.14,-1.609 0.77,-21.824 0.77,-22.664 0,-0.839 0.349,-3.404 -1.889,-3.404 h -57.219 c -2.378,0 -4.827,0.326 -5.316,2.215 -0.49,1.889 7.001,13.137 14.34,16.788 17.871,8.892 40.71,8.892 46.516,8.892 C -0.35,1.827 -0.061,1.125 0,0"
               style="fill:#474747;fill-opacity:1;fill-rule:nonzero;stroke:none"
               id="path269" />
          </g>
          <g
             id="g271"
             transform="translate(132.9395,280.9897)">
            <path
               d="m 0,0 c -2.082,-0.208 -6.292,-0.299 -9.521,0.042 4.076,2.152 24.777,12.978 40.506,19.194 h 4.689 c 1.189,0 2.379,-0.823 1.609,-2.23 C 36.514,15.599 26.021,10.772 15.809,6.016 5.596,1.259 2.798,0.28 0,0"
               style="fill:#474747;fill-opacity:1;fill-rule:nonzero;stroke:none"
               id="path273" />
          </g>
          <g
             id="g275"
             transform="translate(378.416,259.9351)">
            <path
               d="m 0,0 c 1.398,-0.038 14.643,-0.467 18,-1.772 3.357,-1.306 10.633,-6.715 12.125,-8.954 1.492,-2.238 0.001,-3.543 -1.865,-3.45 -1.865,0.093 -14.083,0.745 -16.602,0.745 -2.517,0 -5.409,1.68 -6.808,3.078 -1.399,1.399 -6.179,7.205 -6.995,8.325 C -2.961,-0.909 -1.793,0.048 0,0"
               style="fill:#ffffff;fill-opacity:1;fill-rule:nonzero;stroke:none"
               id="path277" />
          </g>
          <g
             id="g279"
             transform="translate(378.416,259.9351)">
            <path
               d="m 0,0 c 0.799,-0.022 5.461,-0.171 9.938,-0.538 2.861,-2.241 6.822,-6.856 8.189,-13.131 -2.856,0.132 -5.453,0.238 -6.469,0.238 -2.517,0 -5.409,1.68 -6.808,3.078 -1.399,1.399 -6.179,7.205 -6.995,8.325 C -2.961,-0.909 -1.793,0.048 0,0"
               style="fill:#ffba00;fill-opacity:1;fill-rule:nonzero;stroke:none"
               id="path281" />
          </g>
          <g
             id="g283"
             transform="translate(409.1504,226.0898)">
            <path
               d="m 0,0 c 0,-1.127 0.913,-2.039 2.039,-2.039 1.126,0 2.039,0.912 2.039,2.039 V 5.994 C 4.078,7.121 3.165,8.033 2.039,8.033 0.913,8.033 0,7.121 0,5.994 Z"
               style="fill:#525252;fill-opacity:1;fill-rule:nonzero;stroke:none"
               id="path285" />
          </g>
          <g
             id="g287"
             transform="translate(396.543,223.5957)">
            <path
               d="m 0,0 c 0,-1.102 0.893,-1.993 1.993,-1.993 h 3.745 c 1.101,0 1.993,0.891 1.993,1.993 0,1.102 -0.892,1.994 -1.993,1.994 H 1.993 C 0.893,1.994 0,1.102 0,0"
               style="fill:#525252;fill-opacity:1;fill-rule:nonzero;stroke:none"
               id="path289" />
          </g>
          <g
             id="g291"
             transform="translate(84.4971,253.0347)">
            <path
               d="m 0,0 c 0.037,0.014 0.07,0.032 0.107,0.045 0,0 1.469,6.506 2.588,8.324 0.63,1.023 3.183,6.114 6.055,10.5 4.526,-0.339 13.16,-1.058 16.003,-1.803 3.917,-1.026 4.662,-3.265 0.932,-6.715 C 21.955,6.9 12.907,1.304 8.617,0.372 5.917,-0.216 2.627,-0.285 0,0"
               style="fill:#d4085e;fill-opacity:1;fill-rule:nonzero;stroke:none"
               id="path293" />
          </g>
          <g
             id="g295"
             transform="translate(246.2578,260.9146)">
            <path
               d="m 0,0 c 0,-2.55 2.067,-4.617 4.617,-4.617 2.549,0 4.616,2.067 4.616,4.617 0,2.55 -2.067,4.616 -4.616,4.616 C 2.067,4.616 0,2.55 0,0"
               style="fill:#525252;fill-opacity:1;fill-rule:nonzero;stroke:none"
               id="path297" />
          </g>
          <g
             id="g299"
             transform="translate(243.5996,260.9146)">
            <path
               d="m 0,0 c 0,-1.082 0.877,-1.959 1.959,-1.959 h 10.632 c 1.082,0 1.959,0.877 1.959,1.959 0,1.082 -0.877,1.958 -1.959,1.958 H 1.959 C 0.877,1.958 0,1.082 0,0"
               style="fill:#6e6e6e;fill-opacity:1;fill-rule:nonzero;stroke:none"
               id="path301" />
          </g>
          <g
             id="g303"
             transform="translate(184.9355,260.9146)">
            <path
               d="m 0,0 c 0,-2.55 2.066,-4.617 4.617,-4.617 2.55,0 4.616,2.067 4.616,4.617 0,2.55 -2.066,4.616 -4.616,4.616 C 2.066,4.616 0,2.55 0,0"
               style="fill:#525252;fill-opacity:1;fill-rule:nonzero;stroke:none"
               id="path305" />
          </g>
          <g
             id="g307"
             transform="translate(182.2773,260.9146)">
            <path
               d="m 0,0 c 0,-1.082 0.876,-1.959 1.958,-1.959 h 10.633 c 1.082,0 1.959,0.877 1.959,1.959 0,1.082 -0.877,1.958 -1.959,1.958 H 1.958 C 0.876,1.958 0,1.082 0,0"
               style="fill:#6e6e6e;fill-opacity:1;fill-rule:nonzero;stroke:none"
               id="path309" />
          </g>
        </g>
      </g>
    </g>
  </g>
</svg>
