<?xml version="1.0" encoding="utf-8"?>
<svg version="1.1" baseProfile="basic" id="Layer_1"
     xmlns="http://www.w3.org/2000/svg" x="0px" y="0px" width="447.693px"
     height="132.3px" viewBox="0 0 447.693 132.3" xml:space="preserve">
  <path class="path3155" id="path3155" fill="#010101" stroke="#010101" d="
		M428.229,112.805l-4.007,5.152H407.62v-1.717l-9.732-1.717l-2.29-22.327c0,0-8.317-15.568-17.747-20.609
		c-8.921-4.769-19.682-4.729-28.624,0c-10.481,5.542-17.174,24.617-17.174,24.617s1.955,22.094-5.725,22.327
		c-81.265,2.466-196.36-3.435-196.36-3.435l-4.007-13.739c0,0-3.883-17.64-12.595-25.189c-10.436-9.043-20.198-10.367-33.204-5.725
		c-5.362,1.914-7.936,2.838-10.305,8.015c-5.233,11.44-11.45,22.327-11.45,22.327l-3.435,13.167l-43.508-9.16
		c0,0-10.866-10.319-11.45-17.174c-0.319-3.745,4.58-10.305,4.58-10.305l-1.717-6.87L3.45,63l1.717-1.717l12.022-16.029
		c0,0-4.089-4.626-4.007-7.442c0.084-2.912,4.58-7.442,4.58-7.442l5.725,4.007l18.892-0.572l44.081-12.595
		c0,0,30.345-9.492,45.798-13.167c6.991-1.662,14.061-3.043,21.182-4.007c16.128-2.184,32.394-4.535,48.661-4.007
		c10.412,0.338,20.864,1.837,30.914,4.58c6.358,1.736,12.32,4.712,18.319,7.442c16.156,7.354,47.516,24.044,47.516,24.044
		l1.717-1.145l1.145,0.572c0,0,65.913-1.545,97.321,6.752c5.776,1.526,10.592,3.94,16.029,6.415
		c6.386,2.907,19.464,8.015,19.464,8.015s5.374,2.602,6.297,5.152c1.721,4.75-2.862,14.884-2.862,14.884l3.435,4.58l-1.717,10.877
		l-2.29,1.717l2.862,2.862l-1.145,8.015l8.587,4.007L428.229,112.805z"/>
  <circle id="path3159" opacity="0.9982" fill="#010101" cx="364.684" cy="98.523" r="33.776"/>
  <circle id="circle3161" opacity="0.9982" fill="#010101" cx="92.184" cy="98.523" r="33.776"/>
  <path id="path3163" fill="#6D6C86" stroke="#010101" d="
		M287.972,28.681l-32.059-16.147l-18.319-8.47l-3.435,2.29l9.16,4.007c15.273,11.795,30.736,22.643,47.516,26.906l8.587-4.58
		L287.972,28.681z"/>
  <path id="path3165" fill="#6D6C86" stroke="#010101" d="
		M253.05,26.391c0,0-3.595,7.091-8.587,9.16c-21.357,8.851-69.27-3.435-69.27-3.435l-6.297-21.754c0,0,22.887-1.951,34.349-1.717
		c8.429,0.172,17.051,0.088,25.189,2.29C237.993,13.52,253.05,26.391,253.05,26.391L253.05,26.391z"/>
  <path id="path3167" fill="#6D6C86" stroke="#010101" d="
		M162.026,33.833l-45.798-4.58c0,0-4.085-2.04-4.58-4.007c-0.398-1.581,1.717-4.58,1.717-4.58l40.646-10.305L162.026,33.833z"/>
  <circle id="circle3171" opacity="0.9982" fill="#6D6C86" cx="92.184" cy="98.523" r="20.609"/>
  <circle id="circle3173" opacity="0.9982" fill="#6D6C86" cx="364.684" cy="98.523" r="20.609"/>
</svg>
